<?xml version="1.0" encoding="utf-8"?><svg xml:space="preserve" viewBox="0 0 100 100" y="0" x="0" xmlns="http://www.w3.org/2000/svg" id="圖層_1" version="1.1" width="200px" height="200px" xmlns:xlink="http://www.w3.org/1999/xlink" style="width:100%;height:100%;background-size:initial;background-repeat-y:initial;background-repeat-x:initial;background-position-y:initial;background-position-x:initial;background-origin:initial;background-image:initial;background-color:rgb(241, 242, 243);background-clip:initial;background-attachment:initial;animation-play-state:paused" ><g class="ldl-scale" style="transform-origin:50% 50%;transform:rotate(0deg) scale(0.8, 0.8);animation-play-state:paused" ><g style="animation-play-state:paused" ><path stroke-miterlimit="10" stroke-width="3.5" stroke="#333" fill="#f3e5c7" d="M21.9 93.4c-.7 0-1.4-.2-2-.5-1.9-1.1-2.6-3.6-1.5-5.5l25-43.3c1.1-1.9 3.6-2.6 5.5-1.5s2.6 3.6 1.5 5.5l-25 43.3c-.8 1.3-2.2 2-3.5 2z" style="stroke:rgb(0, 59, 100);fill:rgb(0, 59, 100);animation-play-state:paused" ></path></g>
<path stroke-miterlimit="10" stroke-linejoin="round" stroke-width="3.5" stroke="#000" opacity=".2" d="M48.9 42.6c-.3-.2-.7-.3-1-.4.7 1.3.7 3-.1 4.4L21.1 93.3c.2 0 .5.1.7.1 1.4 0 2.7-.7 3.5-2l25-43.3c1.1-1.9.5-4.4-1.4-5.5z" style="stroke:rgb(255, 242, 0);fill:rgb(255, 242, 0);animation-play-state:paused" ></path>
<g style="animation-play-state:paused" ><path fill="#e0c3c4" d="M39 71.8c-2.6-1.5-2.2-2.3-4.8-3.8-2.6-1.5-2.4-1.9-5-3.4-2-1.2-5-1-6.4-2.7-1.5-1.7-1-4.7-1.9-6.7-.9-2.1-2.4-3.8-2.6-6-.2-2.2-.6-4.5-.2-6.7.5-2.1.5-4.8 1.7-6.8 1.8-3.1 3.8-2 5.6-5.1 1.8-3.1 1.2-3.5 3-6.6 1.8-3.1 1.2-3.5 3-6.6 1.2-2 2.7-3.9 4.3-5.4 1.7-1.6 3.5-3.3 5.6-4.3 2.1-.9 4.7-.1 7-.4 2.3-.2 4.8-2 7-1.5s3.8 3 5.8 4.2c2.4 1.4 2.2 1.8 4.6 3.2s3.1.2 5.5 1.6c2 1.2 4.1 2.5 5.6 4.2 1.6 1.7 3 3.8 3.9 5.9.9 2.1 0 4.7.3 7 .2 2.3.3 4.3-.2 6.6-.5 2.2-.8 4.4-2 6.4-1.8 3.1-1.1 3.5-2.9 6.6-1.8 3.1-1.4 3.3-3.2 6.5-1.8 3.1-3.5 2.1-5.3 5.2-1.2 2-1.2 4.8-2.8 6.3-1.7 1.5-3.9 2.6-5.9 3.6-2.1.9-4.6-.1-6.8.1s-4.3.9-6.5.4c-2.1-.4-4.4-.6-6.4-1.8z" style="fill:rgb(255, 242, 0);animation-play-state:paused" ></path>
<path stroke-miterlimit="10" stroke-width="3.5" fill="none" stroke="#333" d="M39 71.8c-2.6-1.5-2.2-2.3-4.8-3.8-2.6-1.5-2.4-1.9-5-3.4-2-1.2-5-1-6.4-2.7-1.5-1.7-1-4.7-1.9-6.7-.9-2.1-2.4-3.8-2.6-6-.2-2.2-.6-4.5-.2-6.7.5-2.1.5-4.8 1.7-6.8 1.8-3.1 3.8-2 5.6-5.1 1.8-3.1 1.2-3.5 3-6.6 1.8-3.1 1.2-3.5 3-6.6 1.2-2 2.7-3.9 4.3-5.4 1.7-1.6 3.5-3.3 5.6-4.3 2.1-.9 4.7-.1 7-.4 2.3-.2 4.8-2 7-1.5s3.8 3 5.8 4.2c2.4 1.4 2.2 1.8 4.6 3.2s3.1.2 5.5 1.6c2 1.2 4.1 2.5 5.6 4.2 1.6 1.7 3 3.8 3.9 5.9.9 2.1 0 4.7.3 7 .2 2.3.3 4.3-.2 6.6-.5 2.2-.8 4.4-2 6.4-1.8 3.1-1.1 3.5-2.9 6.6-1.8 3.1-1.4 3.3-3.2 6.5-1.8 3.1-3.5 2.1-5.3 5.2-1.2 2-1.2 4.8-2.8 6.3-1.7 1.5-3.9 2.6-5.9 3.6-2.1.9-4.6-.1-6.8.1s-4.3.9-6.5.4c-2.1-.4-4.4-.6-6.4-1.8z" style="stroke:rgb(0, 59, 100);animation-play-state:paused" ></path></g>
<path stroke="#333" fill="none" stroke-miterlimit="10" stroke-linejoin="round" stroke-linecap="round" stroke-width="3.5" d="M28.5 46.2c-.7 1.3-.6 3 .1 4.4.7 1.4 1.8 2.5 3.1 3.2.8.5 1.6.9 2.5 1.1.8.1 1.5.1 2.3.4 1.3.5 2.1 1.9 3.1 3 .9 1.1 2.5 2 3.8 1.3" style="stroke:rgb(0, 59, 100);animation-play-state:paused" ></path>
<path stroke="#333" fill="none" stroke-miterlimit="10" stroke-linejoin="round" stroke-linecap="round" stroke-width="3.5" d="M53.5 54.8c3.2-.8 6.7-.4 9.6 1.2" style="stroke:rgb(0, 59, 100);animation-play-state:paused" ></path>
<path stroke="#333" fill="none" stroke-miterlimit="10" stroke-linejoin="round" stroke-linecap="round" stroke-width="3.5" d="M39.8 34.4c1.2 1.4 2.5 2.8 3.8 4.1.6.7 1.3 1.3 2.2 1.7 1.6.7 3.4.5 5.1.6 2.3.1 4.6.9 6.5 2.3" style="stroke:rgb(0, 59, 100);animation-play-state:paused" ></path>
<path stroke="#333" fill="none" stroke-miterlimit="10" stroke-linejoin="round" stroke-linecap="round" stroke-width="3.5" d="M39.9 17.3c-.6 1.5.6 3.4 2.2 3.5.7 0 1.4-.2 2 .1.2.1.4.4.6.6.4.5.9.9 1.4 1.2.9.7 1.9 1.4 2.8 2.1" style="stroke:rgb(0, 59, 100);animation-play-state:paused" ></path>
<path stroke="#333" fill="none" stroke-miterlimit="10" stroke-linejoin="round" stroke-linecap="round" stroke-width="3.5" d="M64 32.4c1.9.2 3.7.3 5.6.5.4 0 .9.1 1.3 0s.8-.3 1.3-.5c.8-.2 1.6-.2 2.3.1" style="stroke:rgb(0, 59, 100);animation-play-state:paused" ></path>
<path stroke-miterlimit="10" stroke-width="3.5" stroke="#000" opacity=".2" d="M81 31.9c-.2-2.3.7-4.9-.3-7-.9-2.1-2.3-4.1-3.9-5.9-1.5-1.7-3.6-3-5.6-4.2-2.4-1.4-3.1-.2-5.5-1.6-.8-.4-1.3-.8-1.7-1.1 1.1 1.6 2 3.3 2.7 5 .9 2.3 0 5.2.3 7.8.2 2.5.3 4.8-.2 7.3s-.8 4.9-2 7.1c-1.8 3.5-1.1 3.9-2.9 7.4-1.8 3.5-1.4 3.7-3.3 7.2s-3.6 2.4-5.4 5.9c-1.2 2.2-1.2 5.4-2.9 7-1.7 1.7-3.9 3-6 4s-4.6-.2-6.9.1c.3.3.7.5 1.3.9 2 1.2 4.3 1.3 6.5 1.8s4.3-.2 6.5-.4 4.7.8 6.8-.1c2-.9 4.2-2 5.9-3.6 1.6-1.5 1.7-4.3 2.8-6.3 1.8-3.1 3.5-2.1 5.3-5.2s1.4-3.3 3.2-6.5c1.8-3.1 1.1-3.5 2.9-6.6 1.2-2 1.5-4.2 2-6.4.8-2.3.7-4.3.4-6.6z" style="stroke:rgb(255, 242, 0);fill:rgb(255, 242, 0);animation-play-state:paused" ></path>
<metadata xmlns:d="https://loading.io/stock/" style="animation-play-state:paused" ><d:name style="animation-play-state:paused" >cotton candy</d:name>
<d:tags style="animation-play-state:paused" >cotton candy,candy floss,fairy floss,spun sugar,marshmallow,dessert,snack,candy,food</d:tags>
<d:license style="animation-play-state:paused" >by</d:license>
<d:slug style="animation-play-state:paused" >i8by4n</d:slug></metadata></g><!-- generated by https://loading.io/ --></svg>